# xmcd
#
# Track frame offsets: 
#        175
#        11625
#        25452
#        36120
#        46945
#        64035
#        78920
#        91807
#        105792
#        120810
#        133257
#
# Disc length: 1959 seconds
#
# Revision: 2
# Processed by: cddbd v1.5.2PL0 Copyright (c) Steve Scherf et al.
# Submitted via: ExactAudioCopy v1.0b3
#
DISCID=7a07a50b
DTITLE=Kenny Baker and Blaine Sprouse - Indian Springs
DYEAR=1989
DGENRE=Bluegrass
TTITLE0=John Barleycorn
TTITLE1=Oh Dem Golden Slippers
TTITLE2=Molly Darlin' 
TTITLE3=Owensboro
TTITLE4=Avalon
TTITLE5=September Waltz 
TTITLE6=Three Days in Dublin 
TTITLE7=Coker Creek
TTITLE8=K and W Waltz
TTITLE9=Cottontown Breakdown
TTITLE10=Indian Springs
EXTD=
EXTT0=
EXTT1=
EXTT2=
EXTT3=
EXTT4=
EXTT5=
EXTT6=
EXTT7=
EXTT8=
EXTT9=
EXTT10=
PLAYORDER=
